<?xml version="1.0" encoding="utf-8"?>
<!-- Generator: Adobe Illustrator 28.1.0, SVG Export Plug-In . SVG Version: 6.00 Build 0)  -->
<svg version="1.1" id="Layer_1" xmlns="http://www.w3.org/2000/svg" xmlns:xlink="http://www.w3.org/1999/xlink" x="0px" y="0px"
	 viewBox="0 0 16 16" style="enable-background:new 0 0 16 16;" xml:space="preserve">
<style type="text/css">
	.st0{display:none;}
	.st1{display:inline;fill:#231F20;}
	.st2{fill:#231F20;}
	.st3{fill:none;stroke:#231F20;stroke-width:0.25;stroke-miterlimit:10;}
	.st4{font-family:'BlackAngel';}
	.st5{font-size:4.5985px;}
	.st6{font-family:'Kugile';}
	.st7{font-size:2.207px;}
	.st8{fill:none;stroke:#231F20;stroke-width:0.02;stroke-miterlimit:10;}
</style>
<g>
	<g id="Background_00000023992228546145330640000009768963717656842403_" class="st0">
		<path class="st1" d="M1107.81,122.81c-10.19-0.27-20.38-0.52-30.57-0.78c1.5-58.62,1.5-58.62,3-117.25
			c42.59,1.09,42.59,1.09,85.19,2.18c-1.5,58.62-1.5,58.62-3,117.25c-4.01-0.09-8.01-0.22-12.02-0.31
			c-1.47-3.09-5.58-9.3-5.87-12.47c-0.31-3.44,1.09-6.28,2.19-9.4c0.8-2.28,2.28-4.7,2.13-7.16c0.08,0,0.21,0.03,0.23-0.05
			c0.38-1.43-0.49-4.21-1.12-5.59c-0.31-0.67-0.7-1.25-1.1-1.86c-0.68-1.04-1.02-1.36-1.78-2.22c-0.64-0.73-1.36-1.31-2.01-2
			c-2.07-2.19-3.96-3.55-5.45-6.56c-0.41-2.63,0.13-3.83-0.86-6.55c-1.5-4.11-5.63-4.82-9.62-4.49c-0.39,0.03-0.82-0.15-1.03,0.15
			c3.14,1.65,3.4,4.49,6.1,8c1.08,1.4,2.28,2.55,3.57,3.76c2.15,2.01,4.83,3.75,6.49,6.12c0.3,0.42,1.02,1.56,1.21,1.98
			c0.23,0.5,0.37,1.09,0.53,1.62c0.13,0.42,0.35,0.96,0.42,1.39c0.12,0.72,0.17,1.45,0.17,2.18c-0.06,0-0.06,0-0.11,0
			c0.02-0.36-0.09-0.7-0.2-1.04c-0.33-0.98-1.01-1.98-1.65-2.79c-1.8-2.29-5.7-4.76-9.04-9.23c-3.1-4.13-5.57-10.2-6.03-10.7
			c-0.13-0.14-0.97-0.72-1.07-0.66c-0.38,0.22-0.1,2.5-2.64-1.9c0.11-1.11,0.06-2.2,0.2-3.32c0.37-2.88,1.81-9.19,4.29-10.78
			c2.01,1.18,10.14,5.62,9.38,0.47c-0.07-2.51,3.7-0.83,1.93-3.73c2.29-1.34,1.55-1.73,1.21-2.49c-0.74-1.67-0.72-1.18,0.76-2.73
			c0.01-0.01,0.22-0.1,0.23-0.11c2.71-2.76,0.2-2.37-0.9-5.06c0.06-0.39-0.1-0.33-0.11-0.35c1.72-1.98,0.46-1.8,0.52-2.56
			c0.06-0.82,1.83-2.08,1.11-3.24c0.48-2.39,0.21-7.57-0.9-9.76c0.46-0.19,0.34-0.53,0.36-0.56c1.93-3.1-0.07-6.39-2.59-8.43
			c-1.27-1.02-5.72-3.58-7.23-4.08c-3.4-1.13-10.94-1.7-14.26-0.36c-2.94,0.64-6.21,2.64-8.15,4.95c-0.88-0.82-4.93-1.03-6.33-0.96
			c-0.87,0.04-1.75,0.34-2.59,0.51c-1.13,0.23-1.58,0.36-2.65,0.73c-1.17,0.41-1.4,0.56-2.43,1.08c-1.69,0.86-1.8,0.96-3.26,2.09
			c-3.77,2.93-6.13,6.73-6.83,11.57c-0.63,4.39,0.03,7.05,0.22,0.46c0.93-4.16,3.06-7.72,6.67-10.08c0.01,0.01,0.13-0.02,0.11,0.12
			c-7.76,5.16-6.86,21.99,1.61,24.56c1.68,0.51,5.46,0.53,2.27,0.86c-2.81,0.29-5.09-1.03-6.79-3.15c-0.24-0.06-0.09,0.24-0.06,0.28
			c0.29,0.45,2.32,2.13,2.86,2.42c3.6,1.97,8.18,1.35,11.48-0.97c0.44-0.31,0.66-0.75,0.71-0.78c0.83-0.59-1.22,1.8-1.49,2.08
			c-4.91,5.16-11.81,5.9-15.18,11.3c-0.86,1.37-1.74,4.04-0.25,0.8c1.29-1.78,2.82-3.53,4.76-4.63c4.31-2.46,7.65-0.28,12.15-4.73
			c-3.69,5.66-10.82,8.2-15.4,13.18c-3.79,4.12-6.53,10.45-4.42,15.98c0.03,0.12-0.09,0.51,0.21,0.69
			c-0.04,0.41,0.35,0.72,0.55,1.05c1.25,2.06,2.17,2.28,0.23,0.01c-0.22-0.39-0.75-0.99-0.78-1.05c-0.02-0.03-0.11-0.42-0.21-0.69
			c-1.2-4.45,0.27-8.5,2.83-12.13c0.31-0.43,3-3.73,3.31-4.04c2.07-2.1-1.12,2.13,0.85,4.66c-1.23-3.07,1.73-7.07,4.45-8.36
			c1.48-0.71,4.59-0.97,6.59-2.24c-1.88,3.23-4,6.91-2.45,10.71c-0.87-4.01,0.01-5.04,1.87-8.2c0.07-0.09,0.58-0.33,0.42-0.68
			c-0.22,0.15-0.31,0.5-0.42,0.68c-0.65,0.82-1.99,2.76-0.82,0.61c1.86-3.41,3.79-4.7,6.09-7.46c-0.15,0.43-0.15,0.43-0.31,0.85
			c0.14,0.52,0.47-0.79,0.84-1.35c0.96-1.49,2.11-2.61,2.75-4.57c3.3,0.06,1.91,4.03,0.95,7.82c-0.52,2.03-1.14,3.95-1.87,5.91
			c-0.64,1.02-3.4,6.39-4.69,8.7c-2.27,4.07-3.81,4.86-4.54,11.63C1099.24,91.27,1106.57,108.79,1107.81,122.81z"/>
		<path class="st1" d="M1138.61,76.28c2.84,5.33,0.1,1.17-0.07,0.4C1138.53,76.59,1138.53,76.32,1138.61,76.28z"/>
		<path class="st1" d="M1086.97,52.73c0.25,0.03-0.7,1.67-0.73,1.81C1085.99,54.42,1086.87,52.72,1086.97,52.73z"/>
		<path class="st1" d="M1083.12,69.02c0.17-0.02,0.26,0.87,0.26,0.98C1083.48,72.28,1083.03,70.05,1083.12,69.02z"/>
		<path class="st1" d="M1105.01,53.08c0.23-0.36,0.42-0.93,0.89-1.35C1106.14,51.86,1105.18,52.87,1105.01,53.08z"/>
		<path class="st1" d="M1106.43,51.05c0.4-0.8,1.06-1.81,0.59-0.73C1106.98,50.44,1106.56,50.89,1106.43,51.05z"/>
		<path class="st1" d="M1106.43,51.05c-0.03,0.07-0.26,0.58-0.3,0.57C1105.91,51.26,1106.39,51.11,1106.43,51.05z"/>
		<path class="st1" d="M1105.01,53.08c-0.09,0.13-0.11,0.21-0.24,0.34C1104.84,53.31,1104.8,53.32,1105.01,53.08z"/>
		<path class="st1" d="M1104.77,53.41c-0.03,0.02-0.12,0.3-0.23,0.17C1104.5,53.33,1104.76,53.43,1104.77,53.41z"/>
	</g>
	<g>
		<g>
			<path class="st2" d="M1122.22,74.26c-0.07,0.38,0.09,0.69,0.2,1.04c-0.24-0.23-0.36-0.47-0.39-0.47
				c-0.87,1.86-1.06,3.95-1.58,5.92c-0.4-1.52-0.51,0.63-0.72,1.18c-0.83,13.72-4.64,29.4-2.74,43.07c-4.08-0.1-4.92-0.89-9-1
				c-1.24-14.03-8.76-32.73-7.29-46.46c0.72-6.77,2.26-7.56,4.54-11.63c0.29,0.32,0.82-0.43,1.45-0.76
				c4.02-2.14,7.44-0.76,10.31,2.38c1.38,1.51,4.4,6.17,4.76,6.54C1121.93,74.23,1121.96,74.29,1122.22,74.26z"/>
			<path class="st2" d="M1118.73,45.06c1.15,4.38,3.6,7.79,3.68,8.23c0.5,2.5-2.62,4.97-2.46,6.75c0.06,0.73,2.15,4.92,2.59,6.25
				c0.37,1.12,0.52,2.84,0.96,2.95c-0.05,0.97-0.33,1.91-0.53,2.85c-0.05,0.24-0.43,1.04-0.49,1.36c-0.06,0.27-0.13,0.55-0.25,0.8
				c-0.26,0.03-0.3-0.02-0.45-0.18c-0.36-0.37-3.38-5.03-4.76-6.54c-2.87-3.14-6.29-4.52-10.31-2.38c-0.63,0.34-1.16,1.08-1.45,0.76
				c1.29-2.31,4.05-7.69,4.69-8.7c1.03-1.63,2.51-2.92,3.55-4.55c1.12-1.74,3.94-7.68,4.6-9.68
				C1118.6,43.26,1118.55,44.39,1118.73,45.06z"/>
			<g>
				<path class="st2" d="M1117.86,7.35c-0.47,0.19-1.4,0.47-1.11,0.77c1.45,0.57,2.83,1.33,4.31,1.83
					c7.75,2.59,13.66,1.17,18.43,5.28c1.62,1.4,2.4,2.81,2.45,4.99c-0.02,0.04,0.1,0.38-0.36,0.56c-0.31-0.62-1.12-1.58-1.73-1.88
					c-3.09-1.5-1.22,1.01-5.15,4.22c-0.18,0.15-0.57,0.31-0.76,0.44c-2.28,0.02-4.2,1.43-6.41,1.9c-5.63,0.34-8.68-1.98-12.9,2.53
					c-3.32,1.18-5.76,3.85-8.96,5.27c-0.26,0.16-0.13,0.28-0.07,0.63c0.29,1.64,4.32,7.53,5.25,9.59c-0.64,1.96-1.79,3.08-2.75,4.57
					c-0.37,0.57-0.7,1.88-0.84,1.35c0.15-0.43,0.15-0.43,0.31-0.85c-2.3,2.77-4.24,4.06-6.09,7.46c-1.17,2.15,0.17,0.21,0.82-0.61
					c-1.86,3.16-2.74,4.19-1.87,8.2c-1.55-3.8,0.57-7.48,2.45-10.71c-1.99,1.26-5.11,1.53-6.59,2.24c-2.72,1.3-5.68,5.29-4.45,8.36
					c-1.97-2.53,1.21-6.77-0.85-4.66c-0.31,0.31-3.01,3.61-3.31,4.04c-2.56,3.63-4.03,7.68-2.83,12.13
					c-2.11-5.54,0.63-11.86,4.42-15.98c4.58-4.98,11.72-7.52,15.4-13.18c-4.5,4.45-7.84,2.27-12.15,4.73
					c-1.94,1.11-3.47,2.86-4.76,4.63c-1.49,3.24-0.61,0.58,0.25-0.8c3.38-5.4,10.28-6.13,15.18-11.3c0.27-0.28,2.32-2.67,1.49-2.08
					c-0.04,0.03-0.27,0.47-0.71,0.78c-3.3,2.32-7.88,2.94-11.48,0.97c-0.53-0.29-2.57-1.97-2.86-2.42
					c-0.03-0.04-0.18-0.35,0.06-0.28c1.71,2.12,3.98,3.45,6.79,3.15c3.19-0.33-0.58-0.35-2.27-0.86c-8.47-2.57-9.36-19.4-1.61-24.56
					c0.65-0.44,2.23-0.97,3.02-1.64c0.31-0.29,0.53-0.19,0.58-0.21c-6.84,3.96-9.55,12.78-6.7,20.05c1.2,3.08,5.31,7.96,9.06,6.48
					c1.16-0.46-0.99-0.39-2.38-0.86c-6.59-2.24-7.5-11.55-5.69-17.27c1.39-4.38,4.83-7.62,8.95-9.45c-1.59,1.48-2.95,3.16-3.91,5.11
					c1.33-1.44,2.86-2.83,4.79-3.43c-1.45,1.09-2.72,2.37-3.77,3.86c-0.49,0.7-1.24,1.84-1.56,2.6c-0.19,0.44-0.67,1.73-0.74,2.1
					c-0.62,3.49,1.1-0.87,1.53-1.62c0.51-0.87,1.11-1.72,1.78-2.48c1.53-1.72,3.71-3.32,5.95-3.97c0.48-0.14,1.37-0.42,1.84-0.3
					c-1.58,0.6-2.8,1.72-3.86,2.99c-1.03,1.24-1.45,2.01-2.04,3.5c-0.26,0.65-1.12,2.64-0.89,3.24c0.33,0.84,0.91-1.73,1.33-2.54
					c0.43-0.86,2.18-3.34,1.05-0.89c-0.64,1.4-2.15,4.18-0.55,3.71c0.21-0.96,0.59-2.54,1.12-3.35c0.61-0.94,0.31-0.1,0.09,0.8
					c-0.67,2.77-1.25,2.73,1.1,4.04c0.37-1.13,0.71-2.27,1.06-3.41c0.35-1.14,0.59-2.29,1-3.41c0.52-1.4,1.14-2.75,1.82-4.08
					c0.87-1.7,1.88-3.61,3.11-5.08C1111.66,9.98,1114.93,7.99,1117.86,7.35z"/>
				<path class="st2" d="M1133.95,23.57c-2.9,2.06-6.12,2.68-7.34,4.68c-2.05,3.36,0.93,7.48-1.71,10.9
					c-0.79-2.31-1.08-4.67-1.37-7.08c-1.9-1.79-2.5-3.18-3.11-3.92c-0.41-0.5-0.7-0.96-1.4-1.07c-2.96-0.47-3.42,4.18-3.08,6.22
					c0.17,1.04,0.95,2.15,1.29,3.13c0,5.38-3.64,8.67-4.03,9.58c-0.41,0.97-0.93,4.61-1.17,5.24c-0.03,0.09-0.15,0.05-0.23,0.05
					c0.96-3.79,2.35-7.76-0.95-7.82c-0.93-2.06-4.97-7.95-5.25-9.59c-0.06-0.34-0.18-0.47,0.07-0.63c3.2-1.42,5.64-4.09,8.96-5.27
					c4.22-4.52,7.26-2.2,12.9-2.53C1129.74,25,1131.67,23.59,1133.95,23.57z"/>
			</g>
			<path class="st2" d="M1141.94,20.22c-0.05-2.18-0.83-3.59-2.45-4.99c-4.76-4.11-10.68-2.69-18.43-5.28
				c-1.48-0.49-2.86-1.25-4.31-1.83c-0.29-0.3,0.64-0.59,1.11-0.77c3.32-1.33,10.86-0.77,14.26,0.36c1.51,0.5,5.96,3.06,7.23,4.08
				C1141.88,13.84,1143.87,17.13,1141.94,20.22z"/>
			<path class="st2" d="M1118.56,38.19c-0.31,0.16,0.5,1.33,0.65,1.39c-0.41-0.21-0.52,1.6-1.12,3.41c-0.66,1.99-3.49,7.93-4.6,9.68
				c-1.04,1.63-2.53,2.92-3.55,4.55c0.73-1.96,1.35-3.88,1.87-5.91c0.08,0,0.2,0.04,0.23-0.05c0.24-0.63,0.76-4.27,1.17-5.24
				c0.38-0.91,4.03-4.2,4.03-9.58C1117.82,36.81,1118.12,37.75,1118.56,38.19z"/>
			<path class="st2" d="M1123.99,54.71c0.67,3.54-0.27,5.85-0.16,6.35c0.02,0.09,0.15,0.06,0.23,0.06c-0.14,1.12-0.09,2.21-0.2,3.32
				c-0.15,1.61-0.14,3.2-0.35,4.8c-0.44-0.11-0.58-1.82-0.96-2.95c-0.44-1.33-2.53-5.52-2.59-6.25c-0.16-1.78,2.96-4.25,2.46-6.75
				c0.36-0.51,0.36-0.51,0.71-1.01C1123.35,52.85,1123.68,53.12,1123.99,54.71z"/>
			<path class="st2" d="M1126.42,48.93c0.62,0.42,1.3,1.07,1.91,1.42c-2.48,1.59-3.92,7.89-4.29,10.78c-0.08,0-0.21,0.02-0.23-0.06
				c-0.11-0.5,0.83-2.82,0.16-6.35c0.28-2.63-0.74-5.06-1.41-7.54C1123.67,47.67,1126.22,49.51,1126.42,48.93z"/>
			<path class="st2" d="M1140.84,36.35c-0.79-1.99,1.27-3.94,1.64-5.8c0.72,1.16-1.05,2.42-1.11,3.24
				C1141.3,34.54,1142.56,34.37,1140.84,36.35z"/>
			<path class="st2" d="M1090.92,55.01c0.93-0.11-0.97,0.51-1.05,0.55c-2.85,1.52-5.5,5.63-6.24,8.72c-0.36,1.52-0.4,3.08-0.52,4.63
				c-0.37-3.79,1.32-8.5,3.9-11.3C1087.79,56.77,1089.8,55.14,1090.92,55.01z"/>
			<path class="st2" d="M1099.72,60.39c-0.19,1.89-0.13,2.9,1.09,4.44c2.62,2.06,1.46,1.89-0.18,0.28c-2.3-2.25-1.42-4.37-1.27-2.04
				C1100.17,63.89,1098.91,62.43,1099.72,60.39z"/>
			<path class="st2" d="M1093.57,11.99c-2.79,1.65-4.91,4.04-6.7,6.7C1088.39,15.85,1090.65,13.42,1093.57,11.99z"/>
			<path class="st2" d="M1097.39,10.6c-1.24,0.23-2.68,0.84-3.82,1.39C1094.91,11.2,1095.82,10.79,1097.39,10.6z"/>
			<path class="st2" d="M1091.28,63.61c0.49,0.81,0.49,0.81,0.99,1.63C1091.82,65.26,1090.87,63.7,1091.28,63.61z"/>
			<path class="st2" d="M1097.39,10.6c0.87-0.17,1.71-0.33,2.64-0.1C1100.02,10.63,1098.56,10.47,1097.39,10.6z"/>
			<path class="st2" d="M1086.87,18.7c-0.21,0.39-0.38,0.97-0.67,1.36C1086.09,19.54,1086.63,19.05,1086.87,18.7z"/>
			<path class="st2" d="M1085.84,76.76c-0.11,0-0.11,0-0.23-0.01c-0.2-0.32-0.59-0.64-0.55-1.05
				C1085.09,75.77,1085.62,76.37,1085.84,76.76z"/>
			<path class="st2" d="M1091.73,54.8c0.04-0.02,0.87,0,0.92,0.02C1092.98,54.98,1091.39,54.94,1091.73,54.8z"/>
			<path class="st2" d="M1102.31,55.41c0.11-0.18,0.2-0.52,0.42-0.68C1102.89,55.08,1102.39,55.32,1102.31,55.41z"/>
			<path class="st2" d="M1085.06,75.71c-0.3-0.19-0.18-0.57-0.21-0.69C1084.96,75.29,1085.05,75.68,1085.06,75.71z"/>
			<g>
				<path class="st2" d="M1120.45,80.74c0.4,4.47-0.07,8.95-0.63,13.39c4.18-0.59,6.71-6.68,6.62-10.37
					c1.2,1.76,0.36,8.72-0.28,10.82c-0.26,0.84-0.8,1.71-1.21,2.49c0.01,0.55,5.34,4.41,6.69,5.04c6.28,2.93,11.05,0.05,10.89-6.94
					c-0.03-1.29-0.21-2.6-0.7-3.8c0.36,0.2,0.49,0.69,0.66,1.05c0.38,0.82,0.6,1.4,0.74,2.31c0.43,2.75-0.44,4.68,0.97,6.96
					c0.92,1.49,1.09,0.95,2.51,0.35c-1.09,3.12-2.5,5.96-2.19,9.4c0.29,3.17,7.78,8.7,4.47,9.57c-9.96,2.6-20,4-30,4
					c-13.81,0-0.1-29.35,0.74-43.07C1119.94,81.37,1120.05,79.22,1120.45,80.74z"/>
				<path class="st2" d="M1122.43,75.29c0.31,0.98,3.97,5.99,4.02,8.47c0.08,3.69-2.44,9.78-6.62,10.37
					c0.56-4.44,1.03-8.92,0.63-13.39c0.53-1.97,0.71-4.06,1.58-5.92C1122.07,74.82,1122.19,75.06,1122.43,75.29z"/>
			</g>
			<path class="st2" d="M1139.62,88.34c-4.19-1.07-8.05-3.17-12.14-4.55c-0.58-1.28-4.26-7.74-5.05-8.49
				c-0.11-0.34-0.27-0.66-0.2-1.04c0.12-0.25,0.19-0.53,0.25-0.8C1126.64,77.8,1136.36,84.77,1139.62,88.34z"/>
			<path class="st2" d="M1127.48,83.79c0.04,0.09-0.08,1.01,0.41,1.9c1.01,1.82,11.86,9.16,14.65,9.48
				c0.16,6.98-4.61,9.87-10.89,6.94c-1.34-0.63-6.68-4.49-6.69-5.04c0.41-0.78,0.95-1.65,1.21-2.49c0.64-2.1,1.47-9.06,0.28-10.82
				c-0.06-2.48-3.71-7.49-4.02-8.47C1123.22,76.05,1126.9,82.51,1127.48,83.79z"/>
			<path class="st2" d="M1139.62,88.34c0.87,0.95,1.71,1.81,2.21,3.04c0.49,1.2,0.68,2.51,0.7,3.8c-2.8-0.32-13.64-7.66-14.65-9.48
				c-0.49-0.89-0.37-1.81-0.41-1.9C1131.58,85.17,1135.43,87.26,1139.62,88.34z"/>
			<path class="st2" d="M1139.54,87.19c0.35,0.42,1.31,1.61,1.55,1.99c0.15,0.23,0.65,1.06,0.77,1.28c0.09,0.18,0.3,0.75,0.43,1.04
				c0.09,0.21,0.44,0.83,0.21,0.92c-0.17-0.36-0.3-0.84-0.66-1.05c-0.5-1.22-1.35-2.09-2.21-3.04
				c-3.26-3.57-12.98-10.54-17.15-14.88c0.07-0.32,0.44-1.12,0.49-1.36C1126.7,75.17,1136.92,84.09,1139.54,87.19z"/>
			<g>
				<path class="st2" d="M1142.64,86.92c-1.33,0.26-3.31-0.58-3.1,0.26c-2.62-3.1-12.84-12.02-16.57-15.09
					c0.2-0.94,0.48-1.88,0.53-2.85c0.21-1.6,0.2-3.2,0.35-4.8c2.54,4.41,2.27,2.12,2.64,1.9c0.1-0.06,0.94,0.52,1.07,0.66
					c0.45,0.5,2.93,6.56,6.03,10.7C1136.94,82.17,1140.84,84.63,1142.64,86.92z"/>
				<path class="st2" d="M1142.64,86.92c0.64,0.81,1.31,1.81,1.65,2.79c-1.06-0.07-2.27-0.18-3.19-0.54
					c-0.25-0.37-1.2-1.57-1.55-1.99C1139.33,86.34,1141.31,87.19,1142.64,86.92z"/>
				<path class="st2" d="M1144.49,90.75c0.06,0,0.06,0,0.11,0c0,0.39,0.01,0.89-0.03,1.26c-1.14-0.26-1.14-0.26-2.28-0.52
					c-0.13-0.3-0.34-0.87-0.43-1.04C1143.17,90.6,1143.17,90.6,1144.49,90.75z"/>
				<path class="st2" d="M1144.29,89.72c0.11,0.34,0.22,0.68,0.2,1.04c-1.31-0.15-1.31-0.15-2.63-0.3
					c-0.12-0.22-0.62-1.05-0.77-1.28C1142.01,89.54,1143.23,89.65,1144.29,89.72z"/>
				<path class="st2" d="M1144.57,92.01c-0.03,0.23-0.08,0.58-0.14,0.8c-0.11,0.47-0.64,1.92-1.19,1.92
					c-0.14-0.91-0.36-1.49-0.74-2.31c0.24-0.1-0.11-0.71-0.21-0.92C1143.43,91.76,1143.43,91.76,1144.57,92.01z"/>
			</g>
			<g>
				<path class="st2" d="M1092.44,15.75c-0.02,0.55-0.36,1.53,0.06,1.95c-3.62,2.36-5.75,5.92-6.67,10.08
					c-0.19,6.59-0.85,3.92-0.22-0.46C1086.31,22.48,1088.67,18.68,1092.44,15.75z"/>
				<path class="st2" d="M1095.7,13.65c-0.03,1.26-0.03,1.26-0.06,2.52c-0.79,0.67-2.37,1.21-3.02,1.64
					c0.02-0.14-0.11-0.11-0.11-0.12c-0.42-0.42-0.09-1.4-0.06-1.95C1093.91,14.61,1094.01,14.51,1095.7,13.65z"/>
				<path class="st2" d="M1098.14,12.57c-0.59,0.76-0.03,1.69,0.28,2.41c-0.45,0.16-1.62,0.71-2.2,0.97
					c-0.05,0.02-0.27-0.07-0.58,0.21c0.03-1.26,0.03-1.26,0.06-2.52C1096.74,13.13,1096.97,12.98,1098.14,12.57z"/>
				<path class="st2" d="M1099.45,14.9c-4.12,1.84-7.56,5.08-8.95,9.45c-1.81,5.72-0.9,15.04,5.69,17.27
					c1.39,0.47,3.54,0.41,2.38,0.86c-3.75,1.48-7.85-3.4-9.06-6.48c-2.84-7.27-0.14-16.1,6.7-20.05c0.58-0.26,1.75-0.82,2.2-0.97
					C1098.99,14.79,1101.01,14.2,1099.45,14.9z"/>
				<path class="st2" d="M1101.53,23.43c-0.53,0.81-0.91,2.39-1.12,3.35c-1.59,0.48-0.09-2.31,0.55-3.71
					C1101.25,23.25,1101.25,23.25,1101.53,23.43z"/>
				<g>
					<path class="st2" d="M1109.72,12.29c-1.23,1.46-2.24,3.38-3.11,5.08c-0.52,0.01-0.78-0.48-1.24-0.6
						c-0.47-0.13-1.36,0.16-1.84,0.3c1.6-1.64-3.1-1.71-2.73-5.23c0.84-0.17,1.72-0.46,2.59-0.51
						C1104.78,11.26,1108.84,11.47,1109.72,12.29z"/>
					<path class="st2" d="M1100.79,11.84c-0.37,3.51,4.33,3.58,2.73,5.23c-2.23,0.65-4.41,2.25-5.95,3.97
						c-0.51-0.3-0.51-0.3-1.02-0.6c1.05-1.49,2.31-2.76,3.77-3.86c-1.92,0.6-3.45,1.99-4.79,3.43c0.97-1.96,2.32-3.63,3.91-5.11
						c1.55-0.69-0.46-0.11-1.03,0.09c-0.31-0.73-0.87-1.66-0.28-2.41C1099.22,12.19,1099.66,12.06,1100.79,11.84z"/>
					<path class="st2" d="M1104.79,21.45c-0.41,1.12-0.66,2.27-1,3.41c-1.03,0.14-1.48-0.61-2.16-0.63c0.22-0.9,0.52-1.75-0.09-0.8
						c-0.28-0.18-0.28-0.18-0.56-0.36c1.13-2.45-0.62,0.03-1.05,0.89c-0.22-0.35-0.22-0.35-0.44-0.7c0.58-1.49,1.01-2.26,2.04-3.5
						C1102.48,20.54,1103.62,21.07,1104.79,21.45z"/>
					<path class="st2" d="M1105.36,16.77c0.46,0.12,0.72,0.62,1.24,0.6c-0.68,1.33-1.31,2.67-1.82,4.08
						c-1.17-0.38-2.31-0.91-3.28-1.69C1102.56,18.49,1103.78,17.36,1105.36,16.77z"/>
					<path class="st2" d="M1103.78,24.86c-0.35,1.14-0.69,2.28-1.06,3.41c-2.35-1.31-1.77-1.27-1.1-4.04
						C1102.3,24.25,1102.75,25,1103.78,24.86z"/>
					<path class="st2" d="M1097.58,21.03c-0.67,0.75-1.28,1.6-1.78,2.48c-0.39-0.24-0.39-0.24-0.79-0.48
						c0.32-0.75,1.07-1.9,1.56-2.6C1097.07,20.74,1097.07,20.74,1097.58,21.03z"/>
					<path class="st2" d="M1095.8,23.51c-0.44,0.75-2.15,5.11-1.53,1.62c0.07-0.38,0.55-1.66,0.74-2.1
						C1095.4,23.27,1095.4,23.27,1095.8,23.51z"/>
					<path class="st2" d="M1099.91,23.96c-0.41,0.82-1,3.39-1.33,2.54c-0.24-0.61,0.63-2.59,0.89-3.24
						C1099.69,23.61,1099.69,23.61,1099.91,23.96z"/>
				</g>
			</g>
			<path class="st2" d="M1126.42,48.93c-0.21,0.58-2.76-1.26-3.85-1.76c0.67,2.48,1.69,4.91,1.41,7.54
				c-0.3-1.59-0.63-1.85-0.85-2.43c-0.9-2.34-2.3-4.54-2.68-7.06c-0.27-1.76-0.22-3.55,0.02-5.33c-0.13-0.31-0.68-0.07-1.25-0.32
				c-0.15-0.07-0.96-1.23-0.65-1.39c1.18,1.17,2.13,1.38,3.1-0.09C1120.75,44.67,1121.45,45.56,1126.42,48.93z"/>
			<path class="st2" d="M1120.45,45.22c0.38,2.52,1.78,4.71,2.68,7.06c-0.36,0.51-0.36,0.51-0.71,1.01
				c-0.09-0.44-2.53-3.85-3.68-8.23C1119.5,44.43,1119.69,44.81,1120.45,45.22z"/>
			<path class="st2" d="M1119.22,39.58c0.57,0.25,1.12,0.01,1.25,0.32c-0.24,1.78-0.29,3.56-0.02,5.33
				c-0.75-0.41-0.95-0.79-1.71-0.16c-0.18-0.68-0.13-1.81-0.63-2.08C1118.7,41.18,1118.8,39.37,1119.22,39.58z"/>
			<g>
				<path class="st2" d="M1136.77,70.05c0.99,2.72,0.46,3.92,0.86,6.55c-0.19-0.57-2.05,0.09-1.86,0.87
					c-1.29-1.2-2.49-2.35-3.57-3.76c2.56-1.44,3.34-0.01,0.78-3.53c-0.34-0.47-0.69-1.01-0.99-1.51
					C1132.71,69.01,1135.74,69.83,1136.77,70.05z"/>
				<path class="st2" d="M1136.77,70.05c-1.03-0.21-4.06-1.04-4.78-1.38c-0.55-0.26-2.22-1.77-4.62-2.98
					c-0.01-0.01,0.04-0.16-0.23-0.12C1131.14,65.23,1135.27,65.93,1136.77,70.05z"/>
				<path class="st2" d="M1127.14,65.56c0.27-0.04,0.21,0.11,0.23,0.12c0.32,0.67,1.17,1.21,1.67,1.93
					c0.63,0.92,0.95,2.09,1.47,3.07c0.62-0.54,2.03,0.63,2.48-0.51c2.56,3.53,1.78,2.09-0.78,3.53c-2.7-3.52-2.96-6.35-6.1-8
					C1126.33,65.41,1126.75,65.59,1127.14,65.56z"/>
				<path class="st2" d="M1137.63,76.6c1.49,3.01,3.37,4.36,5.45,6.56c-0.41,0.22-0.41,0.22-0.81,0.44
					c-1.66-2.37-4.34-4.12-6.49-6.12C1135.59,76.69,1137.44,76.03,1137.63,76.6z"/>
				<g>
					<path class="st2" d="M1148.85,94.87c0.15,2.47-1.33,4.88-2.13,7.16c-1.43,0.6-1.59,1.14-2.51-0.35
						c-1.41-2.28-0.54-4.21-0.97-6.96c0.56,0,1.08-1.44,1.19-1.92c1.4,0.13,3.1,1.43,4.38,1.14
						C1148.93,94.05,1148.84,94.68,1148.85,94.87z"/>
					<path class="st2" d="M1147.96,89.24c0.62,1.37,1.5,4.16,1.12,5.59c-0.02,0.08-0.15,0.05-0.23,0.05
						c-0.01-0.19,0.08-0.83-0.03-0.92c-1.28,0.28-2.98-1.01-4.38-1.14c0.05-0.22,0.11-0.57,0.14-0.8c0.04-0.37,0.03-0.87,0.03-1.26
						c0-0.74-0.05-1.46-0.17-2.18C1145.51,89.21,1146.77,89.93,1147.96,89.24z"/>
					<path class="st2" d="M1146.87,87.38c0.4,0.62,0.79,1.19,1.1,1.86c-1.19,0.7-2.45-0.03-3.53-0.66c-0.07-0.42-0.3-0.96-0.42-1.39
						C1144.98,87.44,1145.88,87.83,1146.87,87.38z"/>
					<path class="st2" d="M1146.87,87.38c-0.99,0.45-1.89,0.06-2.86-0.19c-0.16-0.52-0.31-1.12-0.53-1.62
						c0.81-0.21,0.81-0.21,1.61-0.42C1145.85,86.02,1146.19,86.33,1146.87,87.38z"/>
					<path class="st2" d="M1145.09,85.15c-0.81,0.21-0.81,0.21-1.61,0.42c-0.19-0.41-0.91-1.55-1.21-1.98
						c0.41-0.22,0.41-0.22,0.81-0.44C1143.73,83.84,1144.45,84.42,1145.09,85.15z"/>
				</g>
				<path class="st2" d="M1131.99,68.66c0.3,0.5,0.65,1.04,0.99,1.51c-0.45,1.14-1.86-0.03-2.48,0.51
					c-0.52-0.98-0.83-2.15-1.47-3.07c-0.5-0.72-1.34-1.27-1.67-1.93C1129.77,66.9,1131.44,68.4,1131.99,68.66z"/>
			</g>
			<g>
				<path class="st2" d="M1141.85,41.76c-0.01,0.01-0.22,0.1-0.23,0.11c-0.86-0.42-2.23,0.31-3.04,0.04
					C1137.33,41.48,1142.54,38.88,1141.85,41.76z"/>
				<g>
					<path class="st2" d="M1139.65,47.09c0.06,0.1-0.58,0.03-1.03-0.03c-0.47-0.06-1.5-0.57-2.39-0.52
						c-0.07-0.16-0.26-0.14-0.34-0.3c-0.17-0.75,4.47-1.38,4.97-1.65C1141.2,45.36,1141.93,45.75,1139.65,47.09z"/>
					<path class="st2" d="M1139.65,47.09c1.77,2.9-2,1.22-1.93,3.73c-0.74-1.97-0.17-2.18-0.17-2.3c1.15,0.3,0.84,0.09,1.07-1.46
						C1139.07,47.12,1139.71,47.19,1139.65,47.09z"/>
					<path class="st2" d="M1138.62,47.06c-0.22,1.56,0.08,1.76-1.07,1.46c-0.01-0.8-0.76-0.72-1.32-1.98
						C1137.12,46.49,1138.14,47,1138.62,47.06z"/>
				</g>
				<g>
					<path class="st2" d="M1141.58,20.79c1.11,2.2,1.37,7.37,0.9,9.76c-0.37,1.86-2.43,3.81-1.64,5.8c0.05,0.17,0.05,0.17,0.11,0.35
						c1.1,2.7,3.61,2.3,0.9,5.06c0.69-2.88-4.51-0.28-3.27,0.15c0.81,0.28,2.18-0.46,3.04-0.04c-1.48,1.55-1.5,1.06-0.76,2.73
						c-0.5,0.27-5.14,0.9-4.97,1.65c0.08,0.16,0.27,0.14,0.34,0.3c0.57,1.26,1.32,1.18,1.32,1.98c0,0.12-0.57,0.33,0.17,2.3
						c0.76,5.15-7.37,0.71-9.38-0.47c-0.61-0.36-1.29-1-1.91-1.42c-4.97-3.37-5.67-4.26-4.76-10.83c-0.96,1.48-1.92,1.26-3.1,0.09
						c-0.44-0.44-0.75-1.38-1.33-1.75c-0.35-0.98-1.12-2.09-1.29-3.13c0.29,0.01,0.29,0.01,0.57,0.01c0.25,1.14,1.1,2.51,2.16,3.03
						c0.75,0.38,0.7,0.13,0.74,0.13c0.42,0.09,0.34,0,0.57,0.01c3.6,0.19,0.88,0.11,0.89-3.36c1.65-2.61-1.68,1.17-1.96,0.64
						c0.31-0.74,0.72-1.44,0.97-2.21c0.01-0.03,0.27-0.09,0.36-0.51c0.1-0.51,0.08-2.38-0.16-2.81c-0.01-0.38,0.09-0.1,0.35-0.11
						c0.61,0.73,1.21,2.13,3.11,3.92c0.28,2.41,0.57,4.77,1.37,7.08c2.64-3.42-0.34-7.54,1.71-10.9c1.22-2,4.44-2.62,7.34-4.68
						c0.19-0.13,0.58-0.29,0.76-0.44c3.93-3.21,2.05-5.72,5.15-4.22C1140.47,19.21,1141.27,20.17,1141.58,20.79z"/>
					<g>
						<path class="st2" d="M1140.95,36.7c-0.05-0.17-0.05-0.17-0.11-0.35C1140.85,36.37,1141.01,36.31,1140.95,36.7z"/>
						<path class="st2" d="M1136.55,27.19c1.12-0.14,4.52,0.73,4.82,2.01c0.09,0.37,0.06,1.75-0.56,1.65
							c-0.37-0.06-2.41-3.9-6.47-2.57C1134.63,27.9,1136.19,27.23,1136.55,27.19z"/>
						<path class="st2" d="M1139.46,32.07c-0.53,0.34-0.63,1.16-0.85,1.7c-1.29-0.38-2.5-1.15-3.62-1.93
							C1136.26,31.5,1138.51,31.04,1139.46,32.07z"/>
						<path class="st2" d="M1138.61,33.77c0.19,0.06,0.48,0.09,0.68,0.13c2.5,0.48-0.53,0.13-0.64,0.21
							c-0.2,0.15,0.16,0.65-0.13,0.68c-0.57,0.07-3.75-2.07-4.22-2.8c0.25-0.03,0.45-0.09,0.69-0.15
							C1136.12,32.62,1137.32,33.39,1138.61,33.77z"/>
						<path class="st2" d="M1139.46,32.07c0.6,0.65,0.66,1.28-0.16,1.83c-0.21-0.04-0.49-0.07-0.68-0.13
							C1138.83,33.23,1138.93,32.41,1139.46,32.07z"/>
						<path class="st2" d="M1137.7,40.51c0.09,0,0.08,0.35-0.01,0.34S1137.61,40.51,1137.7,40.51z"/>
					</g>
				</g>
				<g>
					<path class="st2" d="M1119.2,31.21c-0.15,0.14-0.88,0.22-1.28,0.83c-1.27,1.92,1.05,3.17,2.06,4.46
						c-0.23-0.01-0.16,0.07-0.57-0.01c-3.99-1.49-2.39-7.35-2.04-7.61C1118.35,28.12,1120.62,29.92,1119.2,31.21z"/>
					<path class="st2" d="M1120.08,28.26c0.24,0.44,0.26,2.3,0.16,2.81c-0.08,0.42-0.35,0.48-0.36,0.51
						c-0.33-0.03-0.49-0.09-0.68-0.36c1.42-1.29-0.85-3.09-1.83-2.34c-0.35,0.27-1.95,6.12,2.04,7.61
						c-0.04-0.01,0.01,0.24-0.74-0.13c-1.06-0.53-1.91-1.89-2.16-3.03c-0.36-1.68-0.07-6.39,2.61-5.78
						C1119.25,27.57,1120.02,28.15,1120.08,28.26z"/>
					<path class="st2" d="M1120.43,28.15c-0.26,0-0.35-0.27-0.35,0.11c-0.06-0.11-0.83-0.68-0.96-0.71
						c-2.68-0.61-2.98,4.1-2.61,5.78c-0.29-0.01-0.29-0.01-0.57-0.01c-0.34-2.04,0.12-6.69,3.08-6.22
						C1119.72,27.19,1120.01,27.65,1120.43,28.15z"/>
					<g>
						<path class="st2" d="M1119.88,31.57c-0.25,0.77-0.66,1.47-0.97,2.21c0.28,0.53,3.62-3.25,1.96-0.64
							c-0.01,3.47,2.71,3.55-0.89,3.36c-1.01-1.3-3.34-2.54-2.06-4.46c0.4-0.61,1.13-0.69,1.28-0.83
							C1119.39,31.48,1119.55,31.54,1119.88,31.57z"/>
						<path class="st2" d="M1119.76,34.21c0.25,0.04,3.35,3.82-0.64,0.5C1119.07,34.6,1119.72,34.2,1119.76,34.21z"/>
						<path class="st2" d="M1118.78,31.89c0.43,0.07-0.56,0.83-0.63,2.05C1117.86,33.34,1118.44,32.43,1118.78,31.89z"/>
					</g>
				</g>
			</g>
		</g>
		<g>
			<path class="st2" d="M1090.25,49.83c0.91-0.16-1.14,0.78-1.28,0.88c-0.46,0.35-0.89,1.14-1.46,1.28
				C1087.92,51.39,1089.68,49.94,1090.25,49.83z"/>
			<path class="st2" d="M1085.84,76.76c1.94,2.28,1.02,2.05-0.23-0.01C1085.73,76.76,1085.73,76.76,1085.84,76.76z"/>
		</g>
	</g>
</g>
<text transform="matrix(1 0 0 1 1074.001 160.1646)" class="st4" style="fill:#231F20;stroke:#231F20;stroke-width:0.25;stroke-miterlimit:10; font-size:60px;">Hush</text>
<text transform="matrix(1 0 0 1 1061.001 193.1299)" class="st2 st6" style="font-size:28.7964px;">Heaven</text>
<ellipse class="st3" cx="1123.5" cy="64" rx="68.5" ry="61"/>
<g>
	<g id="Background_00000034770820573119181850000013948045515971027080_" class="st0">
		<path class="st1" d="M7.55,10.16c-0.78-0.02-1.56-0.04-2.34-0.06c0.12-4.49,0.12-4.49,0.23-8.99C8.7,1.2,8.7,1.2,11.96,1.28
			c-0.12,4.49-0.12,4.49-0.23,8.99c-0.31-0.01-0.61-0.02-0.92-0.02c-0.11-0.24-0.43-0.71-0.45-0.96c-0.02-0.26,0.08-0.48,0.17-0.72
			c0.06-0.17,0.17-0.36,0.16-0.55c0.01,0,0.02,0,0.02,0c0.03-0.11-0.04-0.32-0.09-0.43c-0.02-0.05-0.05-0.1-0.08-0.14
			c-0.05-0.08-0.08-0.1-0.14-0.17c-0.05-0.06-0.1-0.1-0.15-0.15c-0.16-0.17-0.3-0.27-0.42-0.5c-0.03-0.2,0.01-0.29-0.07-0.5
			C9.65,5.8,9.34,5.75,9.03,5.77C9,5.77,8.97,5.76,8.95,5.78C9.19,5.91,9.21,6.13,9.42,6.4C9.5,6.5,9.59,6.59,9.69,6.68
			c0.16,0.15,0.37,0.29,0.5,0.47c0.02,0.03,0.08,0.12,0.09,0.15c0.02,0.04,0.03,0.08,0.04,0.12c0.01,0.03,0.03,0.07,0.03,0.11
			c0.01,0.06,0.01,0.11,0.01,0.17c0,0,0,0-0.01,0c0-0.03-0.01-0.05-0.02-0.08c-0.03-0.08-0.08-0.15-0.13-0.21
			C10.08,7.23,9.78,7.04,9.52,6.7C9.29,6.38,9.1,5.92,9.06,5.88C9.05,5.87,8.99,5.83,8.98,5.83c-0.03,0.02-0.01,0.19-0.2-0.15
			c0.01-0.08,0-0.17,0.02-0.25c0.03-0.22,0.14-0.7,0.33-0.83C9.27,4.7,9.9,5.04,9.84,4.64c-0.01-0.19,0.28-0.06,0.15-0.29
			c0.18-0.1,0.12-0.13,0.09-0.19c-0.06-0.13-0.06-0.09,0.06-0.21c0,0,0.02-0.01,0.02-0.01c0.21-0.21,0.02-0.18-0.07-0.39
			c0-0.03-0.01-0.03-0.01-0.03c0.13-0.15,0.04-0.14,0.04-0.2c0-0.06,0.14-0.16,0.09-0.25c0.04-0.18,0.02-0.58-0.07-0.75
			c0.04-0.01,0.03-0.04,0.03-0.04c0.15-0.24,0-0.49-0.2-0.65c-0.1-0.08-0.44-0.27-0.55-0.31C9.15,1.25,8.57,1.21,8.32,1.31
			c-0.23,0.05-0.48,0.2-0.62,0.38C7.63,1.63,7.32,1.61,7.21,1.61c-0.07,0-0.13,0.03-0.2,0.04c-0.09,0.02-0.12,0.03-0.2,0.06
			C6.72,1.74,6.7,1.75,6.62,1.79C6.49,1.86,6.48,1.87,6.37,1.95C6.08,2.18,5.9,2.47,5.85,2.84c-0.05,0.34,0,0.54,0.02,0.04
			C5.93,2.56,6.1,2.28,6.37,2.1c0,0,0.01,0,0.01,0.01C5.79,2.51,5.86,3.8,6.51,3.99c0.13,0.04,0.42,0.04,0.17,0.07
			C6.46,4.08,6.29,3.98,6.16,3.82c-0.02,0-0.01,0.02,0,0.02C6.18,3.87,6.33,4,6.37,4.03C6.65,4.18,7,4.13,7.25,3.95
			C7.29,3.93,7.3,3.89,7.31,3.89c0.06-0.04-0.09,0.14-0.11,0.16C6.82,4.45,6.29,4.5,6.03,4.92C5.96,5.02,5.9,5.23,6.01,4.98
			c0.1-0.14,0.22-0.27,0.36-0.36C6.71,4.43,6.96,4.6,7.31,4.26C7.02,4.69,6.48,4.89,6.13,5.27c-0.29,0.32-0.5,0.8-0.34,1.23
			c0,0.01-0.01,0.04,0.02,0.05c0,0.03,0.03,0.06,0.04,0.08c0.1,0.16,0.17,0.18,0.02,0C5.85,6.6,5.81,6.55,5.8,6.55
			c0,0-0.01-0.03-0.02-0.05C5.7,6.15,5.81,5.84,6.01,5.57c0.02-0.03,0.23-0.29,0.25-0.31c0.16-0.16-0.09,0.16,0.07,0.36
			C6.23,5.38,6.46,5.07,6.67,4.97C6.78,4.92,7.02,4.9,7.17,4.8C7.03,5.05,6.86,5.33,6.98,5.62c-0.07-0.31,0-0.39,0.14-0.63
			c0.01-0.01,0.04-0.03,0.03-0.05C7.14,4.95,7.13,4.98,7.13,4.99C7.08,5.06,6.97,5.2,7.06,5.04c0.14-0.26,0.29-0.36,0.47-0.57
			C7.52,4.5,7.52,4.5,7.51,4.53c0.01,0.04,0.04-0.06,0.06-0.1c0.07-0.11,0.16-0.2,0.21-0.35c0.25,0,0.15,0.31,0.07,0.6
			c-0.04,0.16-0.09,0.3-0.14,0.45C7.66,5.21,7.45,5.62,7.35,5.8C7.18,6.11,7.06,6.17,7,6.69C6.89,7.74,7.45,9.08,7.55,10.16z"/>
		<path class="st1" d="M9.91,6.59C10.13,7,9.92,6.68,9.9,6.62C9.9,6.62,9.9,6.6,9.91,6.59z"/>
		<path class="st1" d="M5.95,4.79c0.02,0-0.05,0.13-0.06,0.14C5.88,4.92,5.94,4.79,5.95,4.79z"/>
		<path class="st1" d="M5.65,6.04c0.01,0,0.02,0.07,0.02,0.08C5.68,6.29,5.65,6.11,5.65,6.04z"/>
		<path class="st1" d="M7.33,4.81c0.02-0.03,0.03-0.07,0.07-0.1C7.42,4.72,7.35,4.8,7.33,4.81z"/>
		<path class="st1" d="M7.44,4.66C7.47,4.6,7.52,4.52,7.49,4.6C7.48,4.61,7.45,4.65,7.44,4.66z"/>
		<path class="st1" d="M7.44,4.66c0,0.01-0.02,0.04-0.02,0.04C7.4,4.67,7.44,4.66,7.44,4.66z"/>
		<path class="st1" d="M7.33,4.81C7.33,4.82,7.32,4.83,7.31,4.84C7.32,4.83,7.32,4.83,7.33,4.81z"/>
		<path class="st1" d="M7.31,4.84c0,0-0.01,0.02-0.02,0.01C7.29,4.83,7.31,4.84,7.31,4.84z"/>
	</g>
	<g>
		<g>
			<path class="st2" d="M8.65,6.44C8.65,6.47,8.66,6.49,8.67,6.52C8.65,6.5,8.64,6.48,8.64,6.48c-0.07,0.14-0.08,0.3-0.12,0.45
				C8.49,6.82,8.48,6.98,8.46,7.03c-0.06,1.05-0.36,2.25-0.21,3.3c-0.31-0.01-0.38-0.07-0.69-0.08C7.47,9.17,6.89,7.74,7,6.69
				C7.06,6.17,7.18,6.11,7.35,5.8c0.02,0.02,0.06-0.03,0.11-0.06c0.31-0.16,0.57-0.06,0.79,0.18c0.11,0.12,0.34,0.47,0.36,0.5
				C8.63,6.44,8.63,6.44,8.65,6.44z"/>
			<path class="st2" d="M8.38,4.2c0.09,0.34,0.28,0.6,0.28,0.63c0.04,0.19-0.2,0.38-0.19,0.52c0,0.06,0.16,0.38,0.2,0.48
				c0.03,0.09,0.04,0.22,0.07,0.23c0,0.07-0.03,0.15-0.04,0.22c0,0.02-0.03,0.08-0.04,0.1c0,0.02-0.01,0.04-0.02,0.06
				c-0.02,0-0.02,0-0.03-0.01C8.59,6.4,8.36,6.04,8.25,5.92C8.03,5.68,7.77,5.58,7.46,5.74C7.41,5.77,7.37,5.82,7.35,5.8
				c0.1-0.18,0.31-0.59,0.36-0.67C7.79,5.01,7.9,4.91,7.98,4.78c0.09-0.13,0.3-0.59,0.35-0.74C8.37,4.06,8.37,4.15,8.38,4.2z"/>
			<g>
				<path class="st2" d="M8.32,1.31C8.28,1.32,8.21,1.35,8.23,1.37c0.11,0.04,0.22,0.1,0.33,0.14c0.59,0.2,1.05,0.09,1.41,0.4
					c0.12,0.11,0.18,0.22,0.19,0.38c0,0,0.01,0.03-0.03,0.04C10.11,2.29,10.05,2.22,10,2.2C9.77,2.08,9.91,2.27,9.61,2.52
					C9.59,2.53,9.57,2.54,9.55,2.55c-0.17,0-0.32,0.11-0.49,0.15C8.63,2.72,8.39,2.55,8.07,2.89c-0.25,0.09-0.44,0.3-0.69,0.4
					C7.36,3.31,7.37,3.32,7.38,3.34c0.02,0.13,0.33,0.58,0.4,0.73C7.73,4.23,7.64,4.32,7.57,4.43c-0.03,0.04-0.05,0.14-0.06,0.1
					C7.52,4.5,7.52,4.5,7.53,4.47C7.35,4.68,7.21,4.78,7.06,5.04C6.97,5.2,7.08,5.06,7.13,4.99C6.98,5.24,6.92,5.31,6.98,5.62
					C6.86,5.33,7.03,5.05,7.17,4.8c-0.15,0.1-0.39,0.12-0.5,0.17c-0.21,0.1-0.44,0.41-0.34,0.64C6.17,5.42,6.42,5.09,6.26,5.26
					C6.24,5.28,6.03,5.53,6.01,5.57C5.81,5.84,5.7,6.15,5.79,6.5C5.63,6.07,5.84,5.59,6.13,5.27c0.35-0.38,0.9-0.58,1.18-1.01
					C6.96,4.6,6.71,4.43,6.38,4.62C6.23,4.71,6.11,4.84,6.01,4.98C5.9,5.23,5.96,5.02,6.03,4.92C6.29,4.5,6.82,4.45,7.19,4.05
					c0.02-0.02,0.18-0.2,0.11-0.16c0,0-0.02,0.04-0.05,0.06C7,4.13,6.65,4.18,6.37,4.03C6.33,4,6.18,3.87,6.15,3.84
					c0,0-0.01-0.03,0-0.02c0.13,0.16,0.31,0.26,0.52,0.24c0.24-0.03-0.04-0.03-0.17-0.07C5.86,3.8,5.79,2.51,6.38,2.11
					c0.05-0.03,0.17-0.07,0.23-0.13c0.02-0.02,0.04-0.01,0.04-0.02c-0.52,0.3-0.73,0.98-0.51,1.54C6.24,3.74,6.55,4.12,6.84,4
					c0.09-0.03-0.08-0.03-0.18-0.07c-0.5-0.17-0.57-0.89-0.44-1.32c0.11-0.34,0.37-0.58,0.69-0.72C6.79,2,6.68,2.13,6.61,2.28
					c0.1-0.11,0.22-0.22,0.37-0.26C6.86,2.1,6.77,2.2,6.69,2.31c-0.04,0.05-0.09,0.14-0.12,0.2C6.55,2.54,6.51,2.64,6.51,2.67
					C6.46,2.94,6.59,2.61,6.63,2.55c0.04-0.07,0.09-0.13,0.14-0.19c0.12-0.13,0.28-0.25,0.46-0.3c0.04-0.01,0.1-0.03,0.14-0.02
					c-0.12,0.05-0.21,0.13-0.3,0.23C6.99,2.36,6.95,2.41,6.91,2.53c-0.02,0.05-0.09,0.2-0.07,0.25c0.03,0.06,0.07-0.13,0.1-0.19
					c0.03-0.07,0.17-0.26,0.08-0.07C6.97,2.62,6.86,2.83,6.98,2.8C7,2.72,7.03,2.6,7.07,2.54C7.11,2.47,7.09,2.53,7.07,2.6
					c-0.05,0.21-0.1,0.21,0.08,0.31c0.03-0.09,0.05-0.17,0.08-0.26c0.03-0.09,0.05-0.18,0.08-0.26C7.36,2.28,7.4,2.18,7.46,2.08
					C7.52,1.95,7.6,1.8,7.69,1.69C7.84,1.51,8.09,1.36,8.32,1.31z"/>
				<path class="st2" d="M9.55,2.55C9.33,2.71,9.08,2.76,8.99,2.91C8.83,3.17,9.06,3.48,8.86,3.75C8.8,3.57,8.77,3.39,8.75,3.2
					C8.61,3.07,8.56,2.96,8.51,2.9C8.48,2.87,8.46,2.83,8.41,2.82C8.18,2.79,8.14,3.14,8.17,3.3c0.01,0.08,0.07,0.16,0.1,0.24
					c0,0.41-0.28,0.66-0.31,0.73c-0.03,0.07-0.07,0.35-0.09,0.4c0,0.01-0.01,0-0.02,0c0.07-0.29,0.18-0.59-0.07-0.6
					C7.71,3.92,7.4,3.47,7.38,3.34c0-0.03-0.01-0.04,0.01-0.05c0.25-0.11,0.43-0.31,0.69-0.4C8.39,2.55,8.63,2.72,9.06,2.7
					C9.23,2.66,9.38,2.55,9.55,2.55z"/>
			</g>
			<path class="st2" d="M10.16,2.3c0-0.17-0.06-0.28-0.19-0.38C9.61,1.6,9.16,1.71,8.56,1.51c-0.11-0.04-0.22-0.1-0.33-0.14
				C8.21,1.35,8.28,1.32,8.32,1.31c0.25-0.1,0.83-0.06,1.09,0.03c0.12,0.04,0.46,0.23,0.55,0.31C10.16,1.81,10.31,2.06,10.16,2.3z"
				/>
			<path class="st2" d="M8.37,3.67c-0.02,0.01,0.04,0.1,0.05,0.11C8.39,3.76,8.38,3.9,8.34,4.04C8.29,4.19,8.07,4.65,7.98,4.78
				C7.9,4.91,7.79,5.01,7.71,5.13c0.06-0.15,0.1-0.3,0.14-0.45c0.01,0,0.02,0,0.02,0c0.02-0.05,0.06-0.33,0.09-0.4
				C7.99,4.2,8.27,3.95,8.27,3.54C8.31,3.57,8.34,3.64,8.37,3.67z"/>
			<path class="st2" d="M8.79,4.94c0.05,0.27-0.02,0.45-0.01,0.49c0,0.01,0.01,0,0.02,0C8.78,5.52,8.78,5.6,8.78,5.69
				C8.77,5.81,8.77,5.93,8.75,6.05C8.72,6.04,8.71,5.91,8.68,5.83c-0.03-0.1-0.19-0.42-0.2-0.48C8.47,5.21,8.71,5.02,8.67,4.83
				c0.03-0.04,0.03-0.04,0.05-0.08C8.74,4.8,8.76,4.82,8.79,4.94z"/>
			<path class="st2" d="M8.97,4.5c0.05,0.03,0.1,0.08,0.15,0.11c-0.19,0.12-0.3,0.6-0.33,0.83c-0.01,0-0.02,0-0.02,0
				C8.77,5.39,8.84,5.21,8.79,4.94c0.02-0.2-0.06-0.39-0.11-0.58C8.76,4.4,8.96,4.54,8.97,4.5z"/>
			<path class="st2" d="M10.08,3.53c-0.06-0.15,0.1-0.3,0.13-0.44c0.06,0.09-0.08,0.19-0.09,0.25C10.11,3.39,10.21,3.38,10.08,3.53z
				"/>
			<path class="st2" d="M6.25,4.96C6.32,4.95,6.18,5,6.17,5C5.95,5.12,5.75,5.44,5.69,5.67C5.67,5.79,5.66,5.91,5.66,6.03
				c-0.03-0.29,0.1-0.65,0.3-0.87C6.01,5.1,6.17,4.97,6.25,4.96z"/>
			<path class="st2" d="M6.93,5.37C6.91,5.52,6.92,5.6,7.01,5.71C7.21,5.87,7.12,5.86,7,5.74C6.82,5.56,6.89,5.4,6.9,5.58
				C6.96,5.64,6.87,5.53,6.93,5.37z"/>
			<path class="st2" d="M6.46,1.67C6.24,1.79,6.08,1.97,5.94,2.18C6.06,1.96,6.23,1.77,6.46,1.67z"/>
			<path class="st2" d="M6.75,1.56C6.65,1.58,6.54,1.62,6.46,1.67C6.56,1.6,6.63,1.57,6.75,1.56z"/>
			<path class="st2" d="M6.28,5.62c0.04,0.06,0.04,0.06,0.08,0.12C6.32,5.75,6.25,5.63,6.28,5.62z"/>
			<path class="st2" d="M6.75,1.56c0.07-0.01,0.13-0.03,0.2-0.01C6.95,1.56,6.84,1.55,6.75,1.56z"/>
			<path class="st2" d="M5.94,2.18c-0.02,0.03-0.03,0.07-0.05,0.1C5.88,2.24,5.92,2.21,5.94,2.18z"/>
			<path class="st2" d="M5.86,6.63c-0.01,0-0.01,0-0.02,0C5.83,6.6,5.8,6.58,5.8,6.55C5.81,6.55,5.85,6.6,5.86,6.63z"/>
			<path class="st2" d="M6.32,4.95c0,0,0.07,0,0.07,0C6.41,4.96,6.29,4.96,6.32,4.95z"/>
			<path class="st2" d="M7.13,4.99c0.01-0.01,0.02-0.04,0.03-0.05C7.17,4.97,7.13,4.99,7.13,4.99z"/>
			<path class="st2" d="M5.8,6.55C5.78,6.53,5.79,6.51,5.79,6.5C5.8,6.52,5.8,6.55,5.8,6.55z"/>
			<g>
				<path class="st2" d="M8.52,6.93c0.03,0.34-0.01,0.69-0.05,1.03c0.32-0.05,0.51-0.51,0.51-0.79C9.07,7.3,9,7.83,8.95,7.99
					C8.94,8.06,8.89,8.13,8.86,8.19c0,0.04,0.41,0.34,0.51,0.39c0.48,0.22,0.85,0,0.83-0.53c0-0.1-0.02-0.2-0.05-0.29
					c0.03,0.02,0.04,0.05,0.05,0.08c0.03,0.06,0.05,0.11,0.06,0.18c0.03,0.21-0.03,0.36,0.07,0.53c0.07,0.11,0.08,0.07,0.19,0.03
					c-0.08,0.24-0.19,0.46-0.17,0.72c0.02,0.24,0.6,0.67,0.34,0.73c-0.76,0.2-1.53,0.31-2.3,0.31c-1.06,0-0.01-2.25,0.06-3.3
					C8.48,6.98,8.49,6.82,8.52,6.93z"/>
				<path class="st2" d="M8.67,6.52c0.02,0.08,0.3,0.46,0.31,0.65c0.01,0.28-0.19,0.75-0.51,0.79c0.04-0.34,0.08-0.68,0.05-1.03
					c0.04-0.15,0.05-0.31,0.12-0.45C8.64,6.48,8.65,6.5,8.67,6.52z"/>
			</g>
			<path class="st2" d="M9.99,7.52C9.66,7.43,9.37,7.27,9.06,7.17c-0.04-0.1-0.33-0.59-0.39-0.65C8.66,6.49,8.65,6.47,8.65,6.44
				C8.66,6.42,8.67,6.4,8.67,6.38C8.99,6.71,9.74,7.24,9.99,7.52z"/>
			<path class="st2" d="M9.06,7.17c0,0.01-0.01,0.08,0.03,0.15c0.08,0.14,0.91,0.7,1.12,0.73c0.01,0.54-0.35,0.76-0.83,0.53
				c-0.1-0.05-0.51-0.34-0.51-0.39c0.03-0.06,0.07-0.13,0.09-0.19C9,7.83,9.07,7.3,8.98,7.17c0-0.19-0.28-0.57-0.31-0.65
				C8.73,6.57,9.01,7.07,9.06,7.17z"/>
			<path class="st2" d="M9.99,7.52c0.07,0.07,0.13,0.14,0.17,0.23c0.04,0.09,0.05,0.19,0.05,0.29C10,8.02,9.16,7.45,9.09,7.31
				C9.05,7.25,9.06,7.17,9.06,7.17C9.37,7.27,9.66,7.43,9.99,7.52z"/>
			<path class="st2" d="M9.98,7.43c0.03,0.03,0.1,0.12,0.12,0.15c0.01,0.02,0.05,0.08,0.06,0.1c0.01,0.01,0.02,0.06,0.03,0.08
				c0.01,0.02,0.03,0.06,0.02,0.07c-0.01-0.03-0.02-0.06-0.05-0.08c-0.04-0.09-0.1-0.16-0.17-0.23C9.74,7.24,8.99,6.71,8.67,6.38
				c0.01-0.02,0.03-0.09,0.04-0.1C9,6.51,9.78,7.19,9.98,7.43z"/>
			<g>
				<path class="st2" d="M10.22,7.41c-0.1,0.02-0.25-0.04-0.24,0.02C9.78,7.19,9,6.51,8.71,6.27C8.72,6.2,8.75,6.13,8.75,6.05
					c0.02-0.12,0.02-0.24,0.03-0.37c0.19,0.34,0.17,0.16,0.2,0.15c0.01,0,0.07,0.04,0.08,0.05C9.1,5.92,9.29,6.38,9.52,6.7
					C9.78,7.04,10.08,7.23,10.22,7.41z"/>
				<path class="st2" d="M10.22,7.41c0.05,0.06,0.1,0.14,0.13,0.21c-0.08-0.01-0.17-0.01-0.24-0.04c-0.02-0.03-0.09-0.12-0.12-0.15
					C9.96,7.36,10.12,7.43,10.22,7.41z"/>
				<path class="st2" d="M10.36,7.7C10.36,7.7,10.36,7.7,10.36,7.7c0.01,0.03,0.01,0.07,0.01,0.1c-0.09-0.02-0.09-0.02-0.17-0.04
					c-0.01-0.02-0.03-0.07-0.03-0.08C10.26,7.69,10.26,7.69,10.36,7.7z"/>
				<path class="st2" d="M10.34,7.62c0.01,0.03,0.02,0.05,0.02,0.08c-0.1-0.01-0.1-0.01-0.2-0.02c-0.01-0.02-0.05-0.08-0.06-0.1
					C10.17,7.61,10.26,7.62,10.34,7.62z"/>
				<path class="st2" d="M10.36,7.8c0,0.02-0.01,0.04-0.01,0.06c-0.01,0.04-0.05,0.15-0.09,0.15c-0.01-0.07-0.03-0.11-0.06-0.18
					c0.02-0.01-0.01-0.05-0.02-0.07C10.28,7.78,10.28,7.78,10.36,7.8z"/>
			</g>
			<g>
				<path class="st2" d="M6.37,1.95c0,0.04-0.03,0.12,0,0.15C6.1,2.28,5.93,2.56,5.86,2.88c-0.01,0.5-0.07,0.3-0.02-0.04
					C5.9,2.47,6.08,2.18,6.37,1.95z"/>
				<path class="st2" d="M6.62,1.79c0,0.1,0,0.1,0,0.19C6.55,2.04,6.43,2.08,6.38,2.11c0-0.01-0.01-0.01-0.01-0.01
					C6.34,2.07,6.37,2,6.37,1.95C6.48,1.87,6.49,1.86,6.62,1.79z"/>
				<path class="st2" d="M6.81,1.71c-0.04,0.06,0,0.13,0.02,0.18C6.79,1.91,6.7,1.95,6.66,1.97c0,0-0.02-0.01-0.04,0.02
					c0-0.1,0-0.1,0-0.19C6.7,1.75,6.72,1.74,6.81,1.71z"/>
				<path class="st2" d="M6.91,1.89C6.59,2.03,6.33,2.28,6.22,2.61C6.08,3.05,6.15,3.76,6.66,3.94C6.76,3.97,6.93,3.97,6.84,4
					c-0.29,0.11-0.6-0.26-0.69-0.5C5.93,2.95,6.13,2.27,6.66,1.97C6.7,1.95,6.79,1.91,6.83,1.89C6.87,1.88,7.03,1.83,6.91,1.89z"/>
				<path class="st2" d="M7.07,2.54C7.03,2.6,7,2.72,6.98,2.8C6.86,2.83,6.97,2.62,7.02,2.51C7.04,2.53,7.04,2.53,7.07,2.54z"/>
				<g>
					<path class="st2" d="M7.69,1.69C7.6,1.8,7.52,1.95,7.46,2.08c-0.04,0-0.06-0.04-0.1-0.05c-0.04-0.01-0.1,0.01-0.14,0.02
						c0.12-0.13-0.24-0.13-0.21-0.4c0.06-0.01,0.13-0.04,0.2-0.04C7.32,1.61,7.63,1.63,7.69,1.69z"/>
					<path class="st2" d="M7.01,1.65c-0.03,0.27,0.33,0.27,0.21,0.4C7.05,2.1,6.88,2.23,6.76,2.36C6.72,2.34,6.72,2.34,6.69,2.31
						C6.77,2.2,6.86,2.1,6.97,2.02C6.83,2.06,6.71,2.17,6.61,2.28C6.68,2.13,6.79,2,6.91,1.89c0.12-0.05-0.04-0.01-0.08,0.01
						C6.8,1.84,6.76,1.77,6.81,1.71C6.89,1.68,6.92,1.67,7.01,1.65z"/>
					<path class="st2" d="M7.32,2.39C7.28,2.48,7.27,2.56,7.24,2.65C7.16,2.66,7.13,2.6,7.07,2.6c0.02-0.07,0.04-0.13-0.01-0.06
						C7.04,2.53,7.04,2.53,7.02,2.51c0.09-0.19-0.05,0-0.08,0.07C6.93,2.56,6.93,2.56,6.91,2.53c0.04-0.11,0.08-0.17,0.16-0.27
						C7.14,2.32,7.23,2.36,7.32,2.39z"/>
					<path class="st2" d="M7.36,2.03c0.04,0.01,0.06,0.05,0.1,0.05c-0.05,0.1-0.1,0.2-0.14,0.31C7.23,2.36,7.14,2.32,7.06,2.26
						C7.15,2.16,7.24,2.08,7.36,2.03z"/>
					<path class="st2" d="M7.24,2.65C7.21,2.74,7.19,2.83,7.16,2.91c-0.18-0.1-0.14-0.1-0.08-0.31C7.13,2.6,7.16,2.66,7.24,2.65z"/>
					<path class="st2" d="M6.76,2.36c-0.05,0.06-0.1,0.12-0.14,0.19C6.6,2.53,6.6,2.53,6.57,2.51c0.02-0.06,0.08-0.15,0.12-0.2
						C6.72,2.34,6.72,2.34,6.76,2.36z"/>
					<path class="st2" d="M6.63,2.55C6.59,2.61,6.46,2.94,6.51,2.67c0.01-0.03,0.04-0.13,0.06-0.16C6.6,2.53,6.6,2.53,6.63,2.55z"/>
					<path class="st2" d="M6.94,2.58c-0.03,0.06-0.08,0.26-0.1,0.19c-0.02-0.05,0.05-0.2,0.07-0.25C6.93,2.56,6.93,2.56,6.94,2.58z"
						/>
				</g>
			</g>
			<path class="st2" d="M8.97,4.5c-0.02,0.04-0.21-0.1-0.3-0.13c0.05,0.19,0.13,0.38,0.11,0.58C8.76,4.82,8.74,4.8,8.72,4.75
				C8.65,4.57,8.55,4.4,8.52,4.21C8.5,4.08,8.5,3.94,8.52,3.8C8.51,3.78,8.47,3.8,8.42,3.78C8.41,3.77,8.35,3.69,8.37,3.67
				c0.09,0.09,0.16,0.11,0.24-0.01C8.54,4.17,8.59,4.24,8.97,4.5z"/>
			<path class="st2" d="M8.52,4.21C8.55,4.4,8.65,4.57,8.72,4.75C8.69,4.79,8.69,4.79,8.67,4.83C8.66,4.8,8.47,4.54,8.38,4.2
				C8.44,4.15,8.46,4.18,8.52,4.21z"/>
			<path class="st2" d="M8.42,3.78c0.04,0.02,0.09,0,0.1,0.02c-0.02,0.14-0.02,0.27,0,0.41C8.46,4.18,8.44,4.15,8.38,4.2
				C8.37,4.15,8.37,4.06,8.34,4.04C8.38,3.9,8.39,3.76,8.42,3.78z"/>
			<g>
				<path class="st2" d="M9.77,6.11c0.08,0.21,0.03,0.3,0.07,0.5C9.82,6.57,9.68,6.62,9.69,6.68C9.59,6.59,9.5,6.5,9.42,6.4
					c0.2-0.11,0.26,0,0.06-0.27C9.45,6.09,9.42,6.05,9.4,6.01C9.46,6.03,9.69,6.1,9.77,6.11z"/>
				<path class="st2" d="M9.77,6.11C9.69,6.1,9.46,6.03,9.4,6.01C9.36,5.99,9.23,5.87,9.05,5.78c0,0,0-0.01-0.02-0.01
					C9.34,5.75,9.65,5.8,9.77,6.11z"/>
				<path class="st2" d="M9.03,5.77c0.02,0,0.02,0.01,0.02,0.01c0.02,0.05,0.09,0.09,0.13,0.15C9.22,6,9.25,6.09,9.29,6.16
					c0.05-0.04,0.16,0.05,0.19-0.04c0.2,0.27,0.14,0.16-0.06,0.27C9.21,6.13,9.19,5.91,8.95,5.78C8.97,5.76,9,5.77,9.03,5.77z"/>
				<path class="st2" d="M9.83,6.62c0.11,0.23,0.26,0.33,0.42,0.5c-0.03,0.02-0.03,0.02-0.06,0.03c-0.13-0.18-0.33-0.32-0.5-0.47
					C9.68,6.62,9.82,6.57,9.83,6.62z"/>
				<g>
					<path class="st2" d="M10.69,8.02c0.01,0.19-0.1,0.37-0.16,0.55c-0.11,0.05-0.12,0.09-0.19-0.03c-0.11-0.17-0.04-0.32-0.07-0.53
						c0.04,0,0.08-0.11,0.09-0.15c0.11,0.01,0.24,0.11,0.34,0.09C10.7,7.95,10.69,8,10.69,8.02z"/>
					<path class="st2" d="M10.63,7.59c0.05,0.11,0.11,0.32,0.09,0.43c0,0.01-0.01,0-0.02,0c0-0.01,0.01-0.06,0-0.07
						c-0.1,0.02-0.23-0.08-0.34-0.09c0-0.02,0.01-0.04,0.01-0.06c0-0.03,0-0.07,0-0.1c0-0.06,0-0.11-0.01-0.17
						C10.44,7.58,10.53,7.64,10.63,7.59z"/>
					<path class="st2" d="M10.54,7.44c0.03,0.05,0.06,0.09,0.08,0.14c-0.09,0.05-0.19,0-0.27-0.05c-0.01-0.03-0.02-0.07-0.03-0.11
						C10.4,7.45,10.47,7.48,10.54,7.44z"/>
					<path class="st2" d="M10.54,7.44c-0.08,0.03-0.14,0-0.22-0.01c-0.01-0.04-0.02-0.09-0.04-0.12c0.06-0.02,0.06-0.02,0.12-0.03
						C10.46,7.34,10.49,7.36,10.54,7.44z"/>
					<path class="st2" d="M10.4,7.27c-0.06,0.02-0.06,0.02-0.12,0.03c-0.01-0.03-0.07-0.12-0.09-0.15c0.03-0.02,0.03-0.02,0.06-0.03
						C10.3,7.17,10.36,7.22,10.4,7.27z"/>
				</g>
				<path class="st2" d="M9.4,6.01c0.02,0.04,0.05,0.08,0.08,0.12c-0.03,0.09-0.14,0-0.19,0.04C9.25,6.09,9.22,6,9.17,5.93
					c-0.04-0.06-0.1-0.1-0.13-0.15C9.23,5.87,9.36,5.99,9.4,6.01z"/>
			</g>
			<g>
				<path class="st2" d="M10.16,3.95c0,0-0.02,0.01-0.02,0.01c-0.07-0.03-0.17,0.02-0.23,0C9.81,3.93,10.21,3.73,10.16,3.95z"/>
				<g>
					<path class="st2" d="M9.99,4.36c0,0.01-0.04,0-0.08,0c-0.04,0-0.11-0.04-0.18-0.04C9.72,4.3,9.71,4.3,9.7,4.29
						c-0.01-0.06,0.34-0.11,0.38-0.13C10.11,4.22,10.16,4.25,9.99,4.36z"/>
					<path class="st2" d="M9.99,4.36c0.14,0.22-0.15,0.09-0.15,0.29C9.78,4.49,9.83,4.47,9.83,4.47c0.09,0.02,0.06,0.01,0.08-0.11
						C9.94,4.36,9.99,4.36,9.99,4.36z"/>
					<path class="st2" d="M9.91,4.35C9.89,4.47,9.92,4.49,9.83,4.47c0-0.06-0.06-0.06-0.1-0.15C9.79,4.31,9.87,4.35,9.91,4.35z"/>
				</g>
				<g>
					<path class="st2" d="M10.14,2.34c0.08,0.17,0.11,0.57,0.07,0.75c-0.03,0.14-0.19,0.29-0.13,0.44c0,0.01,0,0.01,0.01,0.03
						c0.08,0.21,0.28,0.18,0.07,0.39c0.05-0.22-0.35-0.02-0.25,0.01c0.06,0.02,0.17-0.04,0.23,0c-0.11,0.12-0.11,0.08-0.06,0.21
						C10.04,4.18,9.69,4.23,9.7,4.29C9.71,4.3,9.72,4.3,9.73,4.31c0.04,0.1,0.1,0.09,0.1,0.15c0,0.01-0.04,0.02,0.01,0.18
						C9.9,5.04,9.27,4.7,9.12,4.61C9.07,4.58,9.02,4.53,8.97,4.5C8.59,4.24,8.54,4.17,8.61,3.67c-0.07,0.11-0.15,0.1-0.24,0.01
						c-0.03-0.03-0.06-0.11-0.1-0.13C8.24,3.46,8.18,3.38,8.17,3.3c0.02,0,0.02,0,0.04,0C8.23,3.39,8.3,3.49,8.38,3.53
						c0.06,0.03,0.05,0.01,0.06,0.01c0.03,0.01,0.03,0,0.04,0c0.28,0.01,0.07,0.01,0.07-0.26c0.13-0.2-0.13,0.09-0.15,0.05
						c0.02-0.06,0.06-0.11,0.07-0.17c0,0,0.02-0.01,0.03-0.04c0.01-0.04,0.01-0.18-0.01-0.22c0-0.03,0.01-0.01,0.03-0.01
						c0.05,0.06,0.09,0.16,0.24,0.3c0.02,0.18,0.04,0.37,0.1,0.54c0.2-0.26-0.03-0.58,0.13-0.84c0.09-0.15,0.34-0.2,0.56-0.36
						c0.01-0.01,0.04-0.02,0.06-0.03C9.91,2.27,9.77,2.08,10,2.2C10.05,2.22,10.11,2.29,10.14,2.34z"/>
					<g>
						<path class="st2" d="M10.09,3.56c0-0.01,0-0.01-0.01-0.03C10.08,3.53,10.09,3.53,10.09,3.56z"/>
						<path class="st2" d="M9.75,2.83c0.09-0.01,0.35,0.06,0.37,0.15c0.01,0.03,0,0.13-0.04,0.13c-0.03,0-0.18-0.3-0.5-0.2
							C9.6,2.88,9.72,2.83,9.75,2.83z"/>
						<path class="st2" d="M9.97,3.2C9.93,3.23,9.93,3.29,9.91,3.33c-0.1-0.03-0.19-0.09-0.28-0.15C9.73,3.16,9.9,3.12,9.97,3.2z"/>
						<path class="st2" d="M9.91,3.33c0.01,0,0.04,0.01,0.05,0.01c0.19,0.04-0.04,0.01-0.05,0.02C9.9,3.37,9.92,3.41,9.9,3.41
							C9.86,3.42,9.61,3.25,9.58,3.2c0.02,0,0.03-0.01,0.05-0.01C9.72,3.25,9.81,3.31,9.91,3.33z"/>
						<path class="st2" d="M9.97,3.2c0.05,0.05,0.05,0.1-0.01,0.14c-0.02,0-0.04-0.01-0.05-0.01C9.93,3.29,9.93,3.23,9.97,3.2z"/>
						<path class="st2" d="M9.84,3.85c0.01,0,0.01,0.03,0,0.03C9.83,3.88,9.83,3.85,9.84,3.85z"/>
					</g>
				</g>
				<g>
					<path class="st2" d="M8.42,3.14C8.41,3.15,8.35,3.16,8.32,3.2C8.22,3.35,8.4,3.44,8.48,3.54c-0.02,0-0.01,0.01-0.04,0
						C8.13,3.43,8.25,2.98,8.28,2.96C8.36,2.9,8.53,3.04,8.42,3.14z"/>
					<path class="st2" d="M8.49,2.91C8.51,2.95,8.51,3.09,8.5,3.13C8.49,3.16,8.47,3.16,8.47,3.17c-0.03,0-0.04-0.01-0.05-0.03
						c0.11-0.1-0.07-0.24-0.14-0.18C8.25,2.98,8.13,3.43,8.44,3.54c0,0,0,0.02-0.06-0.01C8.3,3.49,8.23,3.39,8.21,3.3
						c-0.03-0.13-0.01-0.49,0.2-0.44C8.42,2.86,8.48,2.9,8.49,2.91z"/>
					<path class="st2" d="M8.51,2.9c-0.02,0-0.03-0.02-0.03,0.01c0-0.01-0.06-0.05-0.07-0.05C8.21,2.81,8.19,3.17,8.21,3.3
						c-0.02,0-0.02,0-0.04,0C8.14,3.14,8.18,2.79,8.41,2.82C8.46,2.83,8.48,2.87,8.51,2.9z"/>
					<g>
						<path class="st2" d="M8.47,3.17C8.45,3.22,8.42,3.28,8.4,3.34c0.02,0.04,0.28-0.25,0.15-0.05c0,0.27,0.21,0.27-0.07,0.26
							C8.4,3.44,8.22,3.35,8.32,3.2c0.03-0.05,0.09-0.05,0.1-0.06C8.44,3.16,8.45,3.16,8.47,3.17z"/>
						<path class="st2" d="M8.46,3.37c0.02,0,0.26,0.29-0.05,0.04C8.41,3.4,8.46,3.37,8.46,3.37z"/>
						<path class="st2" d="M8.39,3.19C8.42,3.2,8.35,3.25,8.34,3.35C8.32,3.3,8.36,3.23,8.39,3.19z"/>
					</g>
				</g>
			</g>
		</g>
		<g>
			<path class="st2" d="M6.2,4.57c0.07-0.01-0.09,0.06-0.1,0.07c-0.04,0.03-0.07,0.09-0.11,0.1C6.02,4.69,6.16,4.57,6.2,4.57z"/>
			<path class="st2" d="M5.86,6.63c0.15,0.17,0.08,0.16-0.02,0C5.85,6.63,5.85,6.63,5.86,6.63z"/>
		</g>
	</g>
</g>
<text transform="matrix(1 0 0 1 4.9561 13.0215)" class="st2 st4 st5">Hush</text>
<text transform="matrix(1 0 0 1 3.96 15.5488)" class="st2 st6 st7">Heaven</text>
<ellipse class="st8" cx="8.75" cy="5.65" rx="5.25" ry="4.68"/>
</svg>
